<svg width="32" height="32" viewBox="0 0 32 32" fill="none" xmlns="http://www.w3.org/2000/svg">
<g clip-path="url(#clip0_169_438)">
<path d="M15.3295 0H16.6753C16.8386 0.0490224 17.5005 0.0703165 17.7302 0.0944063C18.4099 0.16325 19.0842 0.278363 19.7482 0.438946C23.9922 1.46775 27.6344 4.18035 29.8364 7.95218C31.9333 11.556 32.5413 15.8362 31.5307 19.8816C30.4746 24.0863 27.7624 27.6846 24.0114 29.8568C22.3118 30.8398 20.4459 31.5021 18.5069 31.8103C18.1106 31.8727 17.7086 31.9095 17.3095 31.947C17.1787 31.9592 16.7685 31.9719 16.6762 32H15.3303C15.2587 31.9766 14.7743 31.9541 14.6489 31.9428C14.2528 31.9076 13.8577 31.861 13.4644 31.8026C11.5215 31.4913 9.65306 30.8229 7.95335 29.8315C4.22337 27.6536 1.52768 24.0647 0.474842 19.875C-0.538361 15.807 0.0838346 11.5038 2.20783 7.8897C4.40726 4.15742 8.0216 1.47293 12.2296 0.446225C12.9022 0.283829 13.5851 0.166673 14.2734 0.0955405C14.4928 0.072086 15.1729 0.0464026 15.3295 0ZM10.7123 22.3661C12.0572 22.3708 13.3273 21.9684 14.591 21.5649C16.4974 20.9706 18.3475 20.1416 20.3463 19.9052C21.5125 19.7672 22.6589 19.8774 23.7611 20.2981C24.191 20.4623 24.5819 20.7276 25.004 20.9043C25.0474 20.9225 25.1332 20.9412 25.1657 20.9005C25.2124 20.8479 25.2442 20.7957 25.2464 20.7252C25.2604 20.2598 25.2548 19.7798 25.2548 19.3142L25.2536 16.543L25.2541 13.2971C25.2546 12.7267 25.2597 12.155 25.2475 11.5849C25.2424 11.3528 25.083 11.0474 24.8983 10.9096C23.8314 10.114 22.4803 9.71928 21.1553 9.73614C21.1371 9.73637 21.1092 9.74066 21.0911 9.74244C20.8739 9.76903 20.6542 9.77029 20.4367 9.7931C20.1403 9.82414 19.836 9.88941 19.5466 9.95985C18.0553 10.3231 16.604 10.9214 15.1686 11.4599C13.9131 11.9309 12.6322 12.4043 11.2877 12.5331C10.1796 12.6393 9.05623 12.4917 8.04555 12.0097C7.89811 11.9394 6.83702 11.2993 6.75323 11.3936C6.63438 11.5274 6.64308 11.9157 6.6356 12.0908C6.60893 12.7167 6.62826 13.3501 6.6288 13.9767L6.62927 17.3894L6.62784 19.524C6.62775 19.9066 6.61746 20.2776 6.64502 20.6594C6.68801 21.2551 7.12303 21.4399 7.60069 21.6752C8.56697 22.1532 9.63455 22.3903 10.7123 22.3661Z" fill="#0F8EE9"/>
</g>
<defs>
<clipPath id="clip0_169_438">
<rect width="32" height="32" fill="white"/>
</clipPath>
</defs>
</svg>
