<svg width="32" height="32" viewBox="0 0 32 32" fill="none" xmlns="http://www.w3.org/2000/svg">
<g clip-path="url(#clip0_169_464)">
<path d="M24.7115 9.11532C26.726 9.06898 28.431 10.2586 28.842 12.3554C29.0552 13.5659 28.8673 14.9215 28.9393 16.1243C29.2634 21.5387 28.4021 26.6067 23.6182 29.94C18.1226 33.7691 10.9199 32.4036 6.96429 26.9177C5.381 24.6763 3.98993 20.1468 5.99406 17.7646C7.00678 16.5609 8.67111 16.2501 10.0951 16.8372C11.9286 17.5929 12.1173 19.0163 12.6181 20.743C12.8473 21.5338 13.5078 22.5276 14.1317 23.0658C15.1213 23.9164 16.0192 24.2158 17.3225 24.1131C18.7605 23.9997 20.2346 22.9356 20.7765 21.5779C21.0645 20.8564 21.0373 19.698 21.0353 18.9229L21.024 15.1329C21.024 14.1512 20.9784 13.1314 21.1743 12.1673C21.5293 10.4208 22.9759 9.25509 24.7115 9.11532Z" fill="#FEAF26"/>
<path d="M7.93078 0.147779C10.2006 -0.0506765 11.6298 1.17217 12.3904 3.05995C13.0853 1.40251 14.118 0.338854 16.0918 0.14321C18.2609 -0.0717609 19.9172 1.16861 20.6552 3.01361C20.817 2.48936 21.086 1.99946 21.4472 1.57118C22.8637 -0.0894627 25.5268 -0.376164 27.324 0.946037C30.4625 3.25502 28.9126 7.75826 24.9986 8.11283C22.9118 8.15351 21.27 7.00534 20.639 5.15515C20.2486 6.42723 19.0386 7.59253 17.6815 7.95097C15.2708 8.58767 13.101 7.21719 12.3786 5.07569C11.2155 8.67213 6.61571 9.17798 4.58723 6.04447C2.97381 3.55222 4.88013 0.384098 7.93078 0.147779Z" fill="#FEAF26"/>
</g>
<defs>
<clipPath id="clip0_169_464">
<rect width="32" height="32" fill="white"/>
</clipPath>
</defs>
</svg>
