<svg width="700" height="700" viewBox="0 0 700 700" fill="none" xmlns="http://www.w3.org/2000/svg">
<path d="M115.091 86.2719C115.335 85.9325 117.574 84.3302 118.057 83.9891C134.615 72.2767 154.082 65.313 174.1 62.5755C184.58 61.1423 195.648 61.5077 206.23 61.5122L248.365 61.5337L392.373 61.5159L479.227 61.5245L503.528 61.4776C506.991 61.4708 514.428 61.3088 517.627 61.841C531.279 62.597 556.592 68.4688 568.148 76.0074C570.849 76.7734 575.835 80.057 578.341 81.6382C596.593 93.1321 611.659 109.03 622.156 127.871C623.253 129.824 623.885 131.225 624.692 133.305C631.702 143.42 638.207 171.965 638.169 184.39C639.068 188.383 638.583 198.548 638.562 203.02L638.535 232.856L638.511 335.226L638.487 458.664L638.5 494.409C638.507 507.832 638.863 518.499 636.518 531.819C632.676 553.113 623.602 573.118 610.114 590.034C588.414 617.747 553.602 635.8 518.547 638.08C511.379 638.545 504.161 638.422 496.98 638.418L463.918 638.398L351.637 638.401L238.663 638.415H205.767C192.281 638.415 180.672 638.747 167.326 636.275C147.312 632.57 127.541 623.861 111.577 611.293C84.1733 589.972 66.4334 558.578 62.3079 524.101C61.1632 514.38 61.3778 505.829 61.3618 496.07L61.3532 460.441L61.3385 343.147L61.3484 232.781L61.3792 202.453C61.3932 192.573 61.2531 182.65 62.7006 172.849C65.6763 152.701 73.2631 131.593 85.9667 115.529C86.383 114.402 88.2687 112.244 89.0466 111.242C94.5831 104.109 107.312 90.8524 115.091 86.2719Z" fill="#7126F1"/>
<path d="M430.035 368.03C422.495 334.197 440.467 299.862 472.565 286.776C504.663 273.689 541.519 285.67 559.785 315.128C578.054 344.586 572.4 382.925 546.407 405.86C520.417 428.794 481.67 429.628 454.716 407.835C442.227 397.735 433.528 383.708 430.035 368.03Z" fill="#FEFEFE"/>
<path d="M493.907 291.995C527.201 288.913 556.705 313.367 559.856 346.654C563.008 379.945 538.614 409.5 505.333 412.716C471.953 415.946 442.292 391.467 439.134 358.08C435.972 324.696 460.513 295.086 493.907 291.995Z" fill="#9B6BF7"/>
<path d="M497.133 298.197C511.137 297.911 523.093 300.287 534.061 309.649C544.39 318.457 550.806 330.999 551.906 344.528C552.703 354.645 551.67 366.119 548.297 375.679C541.355 395.36 521.797 406.133 501.696 407.463C487.741 407.634 473.529 403.088 463.07 393.962C441.41 375.067 441.232 334.803 460.199 313.993C470.425 302.774 482.593 298.978 497.133 298.197Z" fill="#FEFEFE"/>
<path d="M495.578 308.087C506.054 306.867 516.865 310.299 525.362 316.523C543.778 330.012 546.817 363.72 533.077 381.326C526.032 390.353 514.155 395.75 502.725 397.048C492.259 398.234 481.53 394.635 473.166 388.302C454.238 373.974 451.996 342.358 466.129 324.003C473.563 314.343 483.66 309.622 495.578 308.087Z" fill="#9B6BF7"/>
<path d="M85.9667 115.529C86.383 114.402 88.2687 112.244 89.0466 111.242C94.5831 104.109 107.312 90.8524 115.091 86.272L115.257 86.8698C113.986 88.0832 113.401 88.5415 111.956 89.4582C110.1 91.0332 110.912 91.4772 109.345 93.273C105.564 97.6077 99.8443 104.77 94.6579 107.163L94.5509 106.845C95.5076 105.205 96.3085 104.259 97.4846 102.801C96.2271 103.983 90.7929 109.626 90.4565 110.999C89.0647 112.719 87.6463 114.417 86.2015 116.092L85.9667 115.529Z" fill="#9B6BF7"/>
<path d="M124.637 360.086C122.094 336.282 131.694 312.794 150.183 297.586C168.672 282.378 193.571 277.488 216.438 284.575C250.418 295.105 271.396 329.116 265.557 364.209C259.719 399.297 228.858 424.683 193.299 423.644C157.74 422.605 128.415 395.459 124.637 360.086Z" fill="#FEFEFE"/>
<path d="M190.002 291.474C205.538 290.025 223.012 296.016 235.089 305.761C259.551 325.502 260.003 370.292 240.991 393.688C221.871 417.214 179.193 419.621 156.491 400.022C139.344 385.219 134.229 363.368 136.921 341.571C139.139 326.969 146.78 312.066 158.893 303.296C167.945 296.744 178.757 292.096 190.002 291.474Z" fill="#FEFEFE"/>
<path d="M190.002 291.474C205.538 290.025 223.012 296.016 235.089 305.761C259.551 325.502 260.003 370.292 240.991 393.688C221.871 417.214 179.193 419.621 156.491 400.022C139.344 385.219 134.229 363.368 136.921 341.571C142.312 342.05 142.532 342.238 142.94 347.389C141.522 379.907 155.949 402.08 189.464 406.964C204.253 409.121 218.1 404.438 229.885 395.589C252.865 378.376 253.787 337.837 236.794 316.314C227.399 304.414 215.334 299.752 200.734 298.067C198.52 297.488 192.313 297.253 189.962 297.707C189.782 296.656 190.609 295.613 190.753 294.596C191 292.866 189.881 293.457 190.002 291.474Z" fill="#7126F1"/>
<path d="M136.921 341.571C139.139 326.969 146.78 312.066 158.893 303.297C167.945 296.744 178.757 292.097 190.002 291.474C189.881 293.457 191 292.866 190.753 294.596C190.609 295.613 189.782 296.656 189.962 297.707C192.313 297.253 198.52 297.488 200.734 298.067C166.462 297.927 146.743 312.354 142.94 347.389C142.532 342.238 142.312 342.05 136.921 341.571Z" fill="#9B6BF7"/>
<path d="M192.097 308.094C202.036 307.152 213.514 310.436 221.539 316.605C241.118 331.655 242.797 363.422 228.044 382.334C220.885 391.515 211.169 395.462 199.776 396.737C169.976 398.139 152.317 379.388 153.441 349.925C154.329 326.637 168.974 310.589 192.097 308.094Z" fill="#7126F1"/>
<path d="M408.526 300.503C412.727 300.128 420.311 299.931 423.384 303.407C426.99 307.489 423.384 311.078 418.735 311.164C412.501 311.28 404.94 310.614 402.066 317.617C399.485 324.028 397.728 331.224 395.787 337.908L385.502 373.464C382.734 383.264 380.297 392.072 376.773 401.635C370.299 419.2 352.895 428.914 334.815 420.995C329.731 418.718 325.433 414.993 322.458 410.286C317.076 401.823 314.218 390.421 311.405 380.7L299.597 339.79C297.682 333.142 295.815 325.939 293.557 319.423C292.297 315.786 290.671 313.659 287.114 312.131L286.683 311.951C283.575 311.312 280.685 311.305 277.534 311.229C274.82 311.164 271.194 311.23 270.577 307.823C269.164 300.124 276.815 301.459 281.567 301.524C291.475 301.659 298.65 302.479 302.453 312.97C304.355 318.215 305.745 323.448 307.287 328.865L319.649 372.347C322.318 381.739 324.506 391.481 328.616 400.384C334.796 414.945 355.26 417.765 363.938 404.24C369.964 394.847 373.762 377.354 376.957 366.147L386.829 331.424C390.653 317.86 392.41 303.807 408.526 300.503Z" fill="#FEFEFE"/>
<path d="M407.066 284.867C410.368 284.774 413.714 284.916 417.074 284.961C421.788 285.095 424.85 285.147 424.313 290.765C423.862 295.497 419.159 294.826 415.615 294.698C401.844 294.197 391.292 296.554 386.565 311.089C384.323 317.983 382.153 325.582 380.041 332.828L368.519 372.429C366.29 380.095 364.314 387.851 361.389 395.281C358.401 403.054 352.786 406.991 344.285 405.569C333.379 403.748 330.547 386.914 327.925 377.942L316.726 339.554C313.415 328.194 310.15 313.29 304.194 303.031C301.229 297.924 294.645 295.924 289.02 295.021C284.136 294.513 271.109 296.698 270.444 290.642C269.649 283.402 277.876 285.174 282.203 285.043C296.699 284.601 310.096 287.743 316.16 302.383C319.909 311.134 321.879 320.113 324.635 329.204C330.061 348.062 335.601 367.127 340.96 386.025C341.716 388.691 342.248 391.761 344.374 393.716C346.346 395.534 350.25 395.103 351.377 392.547C354.043 386.794 355.523 380.164 357.284 374.042L369.934 330.094C376.626 306.859 378.335 286.122 407.066 284.867Z" fill="#FEFEFE"/>
<path d="M160.034 70.1963C162.497 71.1502 164.34 69.7222 165.559 70.91C162.455 71.5221 158.383 71.5584 155.229 72.1599C156.961 72.2635 158.597 72.4375 160.319 72.6169C159.352 72.7119 158.384 72.7909 157.414 72.8538L157.285 73.2267C158.385 73.3254 158.332 73.1029 158.9 73.616L158.368 74.1399L157.346 73.9229L156.83 74.2172C154.268 74.6058 148.835 76.2266 146.986 75.3824L147.144 75.0043L149.208 75.0724L149.567 74.7087C148.179 74.0709 149.587 75.3783 147.74 74.1779L148.613 73.9219L146.618 73.7496L146.772 73.4126C151.147 72.2898 155.636 71.2548 160.034 70.1963Z" fill="#7126F1"/>
</svg>
