<svg width="229" height="21" viewBox="0 0 229 21" fill="none" xmlns="http://www.w3.org/2000/svg">
<g clip-path="url(#clip0_270_542)">
<path d="M-0.00012207 16.5V4.97998H4.44788C4.55988 4.97998 4.68522 4.98531 4.82388 4.99598C4.96788 5.00131 5.11188 5.01731 5.25588 5.04398C5.85855 5.13465 6.36788 5.34531 6.78388 5.67598C7.20522 6.00131 7.52255 6.41198 7.73588 6.90798C7.95455 7.40398 8.06388 7.95331 8.06388 8.55598C8.06388 9.15331 7.95455 9.69998 7.73588 10.196C7.51722 10.692 7.19722 11.1053 6.77588 11.436C6.35988 11.7613 5.85322 11.9693 5.25588 12.06C5.11188 12.0813 4.96788 12.0973 4.82388 12.108C4.68522 12.1187 4.55988 12.124 4.44788 12.124H1.17588V16.5H-0.00012207ZM1.17588 11.004H4.41588C4.51188 11.004 4.62388 10.9987 4.75188 10.988C4.87988 10.9773 5.00522 10.9587 5.12788 10.932C5.52255 10.8467 5.84522 10.684 6.09588 10.444C6.35188 10.204 6.54122 9.91865 6.66388 9.58798C6.79188 9.25731 6.85588 8.91331 6.85588 8.55598C6.85588 8.19865 6.79188 7.85465 6.66388 7.52398C6.54122 7.18798 6.35188 6.89998 6.09588 6.65998C5.84522 6.41998 5.52255 6.25731 5.12788 6.17198C5.00522 6.14531 4.87988 6.12931 4.75188 6.12398C4.62388 6.11331 4.51188 6.10798 4.41588 6.10798H1.17588V11.004ZM13.2173 16.74C12.3586 16.74 11.6253 16.5453 11.0173 16.156C10.4093 15.7667 9.94259 15.228 9.61726 14.54C9.29192 13.852 9.12926 13.0627 9.12926 12.172C9.12926 11.2653 9.29459 10.4707 9.62526 9.78798C9.95592 9.10531 10.4253 8.57465 11.0333 8.19598C11.6466 7.81198 12.3746 7.61998 13.2173 7.61998C14.0813 7.61998 14.8173 7.81465 15.4253 8.20398C16.0386 8.58798 16.5053 9.12398 16.8253 9.81198C17.1506 10.4947 17.3133 11.2813 17.3133 12.172C17.3133 13.0787 17.1506 13.876 16.8253 14.564C16.4999 15.2467 16.0306 15.78 15.4173 16.164C14.8039 16.548 14.0706 16.74 13.2173 16.74ZM13.2173 15.612C14.1773 15.612 14.8919 15.2947 15.3613 14.66C15.8306 14.02 16.0653 13.1907 16.0653 12.172C16.0653 11.1267 15.8279 10.2947 15.3533 9.67598C14.8839 9.05731 14.1719 8.74798 13.2173 8.74798C12.5719 8.74798 12.0386 8.89465 11.6173 9.18798C11.2013 9.47598 10.8893 9.87865 10.6813 10.396C10.4786 10.908 10.3773 11.5 10.3773 12.172C10.3773 13.212 10.6173 14.0467 11.0973 14.676C11.5773 15.3 12.2839 15.612 13.2173 15.612ZM20.6055 16.5L17.9655 7.85198L19.1415 7.85998L21.1895 14.572L23.2455 7.85998H24.3175L26.3735 14.572L28.4375 7.85998H29.6055L26.9655 16.5H25.9415L23.7815 9.61998L21.6295 16.5H20.6055ZM34.3903 16.74C33.5476 16.74 32.8169 16.5533 32.1983 16.18C31.5849 15.8067 31.1076 15.2813 30.7663 14.604C30.4249 13.9267 30.2543 13.132 30.2543 12.22C30.2543 11.276 30.4223 10.46 30.7583 9.77198C31.0943 9.08398 31.5663 8.55331 32.1743 8.17998C32.7876 7.80665 33.5103 7.61998 34.3423 7.61998C35.1956 7.61998 35.9236 7.81731 36.5263 8.21198C37.1289 8.60131 37.5849 9.16131 37.8943 9.89198C38.2036 10.6227 38.3449 11.4947 38.3183 12.508H37.1183V12.092C37.0969 10.972 36.8543 10.1267 36.3903 9.55598C35.9316 8.98531 35.2596 8.69998 34.3743 8.69998C33.4463 8.69998 32.7343 9.00131 32.2383 9.60398C31.7476 10.2067 31.5023 11.0653 31.5023 12.18C31.5023 13.268 31.7476 14.1133 32.2383 14.716C32.7343 15.3133 33.4356 15.612 34.3423 15.612C34.9609 15.612 35.4996 15.4707 35.9583 15.188C36.4223 14.9 36.7876 14.4867 37.0543 13.948L38.1503 14.372C37.8089 15.124 37.3049 15.708 36.6383 16.124C35.9769 16.5347 35.2276 16.74 34.3903 16.74ZM31.0863 12.508V11.524H37.6863V12.508H31.0863ZM40.0936 16.5V7.85998H41.1496V9.93998L40.9416 9.66798C41.0376 9.41198 41.163 9.17731 41.3176 8.96398C41.4723 8.74531 41.6403 8.56665 41.8216 8.42798C42.0456 8.23065 42.307 8.08131 42.6056 7.97998C42.9043 7.87331 43.2056 7.81198 43.5096 7.79598C43.8136 7.77465 44.091 7.79598 44.3416 7.85998V8.96398C44.027 8.88398 43.683 8.86531 43.3096 8.90798C42.9363 8.95065 42.5923 9.09998 42.2776 9.35598C41.9896 9.57998 41.7736 9.84931 41.6296 10.164C41.4856 10.4733 41.3896 10.804 41.3416 11.156C41.2936 11.5027 41.2696 11.8467 41.2696 12.188V16.5H40.0936ZM49.359 16.74C48.5163 16.74 47.7857 16.5533 47.167 16.18C46.5537 15.8067 46.0763 15.2813 45.735 14.604C45.3937 13.9267 45.223 13.132 45.223 12.22C45.223 11.276 45.391 10.46 45.727 9.77198C46.063 9.08398 46.535 8.55331 47.143 8.17998C47.7563 7.80665 48.479 7.61998 49.311 7.61998C50.1643 7.61998 50.8923 7.81731 51.495 8.21198C52.0977 8.60131 52.5537 9.16131 52.863 9.89198C53.1723 10.6227 53.3137 11.4947 53.287 12.508H52.087V12.092C52.0657 10.972 51.823 10.1267 51.359 9.55598C50.9003 8.98531 50.2283 8.69998 49.343 8.69998C48.415 8.69998 47.703 9.00131 47.207 9.60398C46.7163 10.2067 46.471 11.0653 46.471 12.18C46.471 13.268 46.7163 14.1133 47.207 14.716C47.703 15.3133 48.4043 15.612 49.311 15.612C49.9297 15.612 50.4683 15.4707 50.927 15.188C51.391 14.9 51.7563 14.4867 52.023 13.948L53.119 14.372C52.7777 15.124 52.2737 15.708 51.607 16.124C50.9457 16.5347 50.1963 16.74 49.359 16.74ZM46.055 12.508V11.524H52.655V12.508H46.055ZM58.4144 16.74C57.609 16.74 56.921 16.54 56.3504 16.14C55.7797 15.7347 55.3424 15.188 55.0384 14.5C54.7344 13.812 54.5824 13.036 54.5824 12.172C54.5824 11.3133 54.7317 10.54 55.0304 9.85198C55.3344 9.16398 55.769 8.61998 56.3344 8.21998C56.8997 7.81998 57.577 7.61998 58.3664 7.61998C59.177 7.61998 59.8597 7.81731 60.4144 8.21198C60.969 8.60665 61.3877 9.14798 61.6704 9.83598C61.9584 10.5187 62.1024 11.2973 62.1024 12.172C62.1024 13.0307 61.9611 13.8067 61.6784 14.5C61.3957 15.188 60.9797 15.7347 60.4304 16.14C59.881 16.54 59.209 16.74 58.4144 16.74ZM58.5344 15.644C59.1477 15.644 59.6544 15.4947 60.0544 15.196C60.4544 14.8973 60.753 14.4867 60.9504 13.964C61.1477 13.436 61.2464 12.8387 61.2464 12.172C61.2464 11.4947 61.1477 10.8973 60.9504 10.38C60.753 9.85731 60.4544 9.44931 60.0544 9.15598C59.6597 8.86265 59.161 8.71598 58.5584 8.71598C57.9397 8.71598 57.4277 8.86798 57.0224 9.17198C56.617 9.47598 56.3157 9.88931 56.1184 10.412C55.9264 10.9347 55.8304 11.5213 55.8304 12.172C55.8304 12.828 55.929 13.42 56.1264 13.948C56.329 14.4707 56.6304 14.884 57.0304 15.188C57.4304 15.492 57.9317 15.644 58.5344 15.644ZM61.2464 16.5V9.99598H61.1184V4.97998H62.3024V16.5H61.2464ZM71.6299 16.74C70.8352 16.74 70.1632 16.54 69.6139 16.14C69.0645 15.7347 68.6485 15.188 68.3659 14.5C68.0832 13.8067 67.9419 13.0307 67.9419 12.172C67.9419 11.2973 68.0832 10.5187 68.3659 9.83598C68.6539 9.14798 69.0752 8.60665 69.6299 8.21198C70.1845 7.81731 70.8672 7.61998 71.6779 7.61998C72.4672 7.61998 73.1445 7.81998 73.7099 8.21998C74.2752 8.61998 74.7072 9.16398 75.0059 9.85198C75.3099 10.54 75.4619 11.3133 75.4619 12.172C75.4619 13.036 75.3099 13.812 75.0059 14.5C74.7019 15.188 74.2645 15.7347 73.6939 16.14C73.1232 16.54 72.4352 16.74 71.6299 16.74ZM67.7419 16.5V4.97998H68.9259V9.99598H68.7979V16.5H67.7419ZM71.5099 15.644C72.1125 15.644 72.6139 15.492 73.0139 15.188C73.4139 14.884 73.7125 14.4707 73.9099 13.948C74.1125 13.42 74.2139 12.828 74.2139 12.172C74.2139 11.5213 74.1152 10.9347 73.9179 10.412C73.7205 9.88931 73.4192 9.47598 73.0139 9.17198C72.6139 8.86798 72.1045 8.71598 71.4859 8.71598C70.8832 8.71598 70.3819 8.86265 69.9819 9.15598C69.5872 9.44931 69.2912 9.85731 69.0939 10.38C68.8965 10.8973 68.7979 11.4947 68.7979 12.172C68.7979 12.8387 68.8965 13.436 69.0939 13.964C69.2912 14.4867 69.5899 14.8973 69.9899 15.196C70.3899 15.4947 70.8965 15.644 71.5099 15.644ZM78.0288 20.34L79.7008 15.804L79.7248 17.148L75.9408 7.85998H77.1888L80.2928 15.628H79.7808L82.6448 7.85998H83.8448L79.2048 20.34H78.0288Z" fill="black"/>
<mask id="mask0_270_542" style="mask-type:luminance" maskUnits="userSpaceOnUse" x="98" y="0" width="131" height="21">
<path d="M228.88 0H98.8799V21H228.88V0Z" fill="white"/>
</mask>
<g mask="url(#mask0_270_542)">
<path d="M108.234 0H108.881C109.424 0.469676 109.971 0.543862 109.994 1.50279C110.02 2.60568 110.008 3.7301 110.008 4.83286L110.01 11.1937L110.009 16.5285C110.009 17.5903 110.03 18.653 109.96 19.7126C109.923 20.256 109.515 20.6866 109.015 20.8933L108.946 21H108.233C107.916 20.6576 107.501 20.6899 107.284 20.1892C107.138 19.8546 107.148 19.4554 107.137 19.0964C107.09 17.5029 107.032 1.3843 107.214 0.958343C107.388 0.552391 107.779 0.31441 108.175 0.151856L108.234 0Z" fill="#0157A7"/>
<path d="M98.8799 4.56567C99.6045 4.05385 99.7157 4.03028 100.618 4.16533C100.978 4.41458 101.098 4.54058 101.4 4.85921C101.504 5.61861 101.482 6.47032 101.478 7.24267C101.463 9.94938 101.52 12.6631 101.449 15.3679C101.437 15.8239 101.352 16.2489 100.989 16.5571C100.19 17.2566 99.5897 16.8903 98.8799 16.4041V4.56567Z" fill="#9CDCF7"/>
<path d="M169.626 0H170.162C170.344 0.158587 170.596 0.362161 170.739 0.547961L170.732 10.5281C170.732 12.3124 170.68 14.4059 170.756 16.1684C170.655 16.3275 170.528 16.4701 170.381 16.591C170.104 16.8206 169.748 17.009 169.448 16.7014C168.86 16.0987 168.94 15.2603 169.021 14.5049C168.272 15.2142 167.876 15.8516 166.876 16.291C161.083 18.8366 156.609 13.2779 158.479 8.01593C159.002 6.54308 160.099 5.33113 161.532 4.64364C163.597 3.67076 166.54 3.87896 168.215 5.52108C168.413 5.71525 168.689 6.10818 168.921 6.18662C169.275 5.87253 168.933 1.53474 169.001 0.745042C169.032 0.378531 169.365 0.195458 169.626 0Z" fill="#002857"/>
<path d="M163.783 5.78142C164.704 5.57872 166.122 5.88862 166.893 6.41028C167.978 7.14521 168.681 8.27215 168.931 9.52967C169.191 10.8356 168.914 12.1889 168.16 13.297C167.491 14.26 166.515 14.9412 165.341 15.1629C164.077 15.3299 162.872 15.2401 161.86 14.4457C158.779 12.0266 159.438 6.32863 163.783 5.78142Z" fill="white"/>
<path d="M228.88 14.709C228.712 14.7902 228.259 15.5771 227.998 15.7797C226.886 16.6462 225.675 16.9386 224.275 16.8906C223.198 16.8538 219.385 15.8652 219.492 14.5918C219.51 14.3866 219.612 14.1973 219.777 14.069C220.468 13.5227 221.913 14.8562 222.647 15.0246C223.176 15.1407 223.836 15.2394 224.374 15.3062C225.556 15.4531 227.31 14.9406 227.345 13.5458C227.415 10.7852 221.891 11.463 220.641 9.41801C218.721 6.27712 221.851 3.58419 225.106 4.14397C226.482 4.37223 228.005 4.64048 228.88 5.70612V6.18904V11.8154V14.709Z" fill="#002857"/>
<path d="M228.88 11.8153C228.425 11.3056 228.124 10.9585 227.514 10.5712C225.958 9.58455 223.543 9.58517 222.203 8.29742C221.986 8.07546 221.776 7.66531 221.821 7.35787C222.135 5.30351 224.801 5.51034 226.296 6.0225C227.4 6.40066 227.852 7.07211 228.88 6.189V11.8153Z" fill="white"/>
<path d="M175.386 0H175.912C176.176 0.286249 176.29 0.275109 176.559 0.681986C176.627 1.78843 176.608 3.05764 176.614 4.17951C177.278 4.19212 180.164 3.99138 180.5 4.50064C181.712 6.33841 177.619 5.87661 176.603 5.87633C176.624 7.54185 176.573 9.21516 176.602 10.8854C176.62 11.9229 176.388 13.9285 177.144 14.6983C177.994 15.5625 179.44 14.8404 180.384 15.2494C180.776 15.4193 180.759 16.2956 180.31 16.4399C178.362 17.3624 175.215 16.8608 174.862 14.4059C174.7 13.2811 174.753 12.122 174.752 10.9662L174.75 5.4217L174.751 2.40837C174.751 1.83999 174.732 1.18613 174.812 0.621749C174.864 0.249973 175.135 0.34569 175.386 0Z" fill="#002857"/>
<path d="M170.739 0.547852C171.104 1.12713 170.983 3.70324 170.984 4.55601V10.3176C170.983 12.0497 171.003 13.8194 170.951 15.5523C170.944 15.781 170.907 15.9844 170.756 16.1683C170.68 14.4058 170.732 12.3123 170.732 10.528L170.739 0.547852Z" fill="#B0B8C7"/>
<path d="M195.858 4.22172C197.865 4.02298 199.926 4.70142 201.185 6.28674C202.726 8.22865 202.376 10.4671 202.388 12.7479C202.394 13.7711 202.464 15.1241 202.328 16.1316C202.021 16.6195 201.432 17.0205 200.877 16.5247C200.454 16.1462 200.559 15.0574 200.566 14.5092C199.867 15.2155 199.72 15.5581 198.734 16.158C197.333 17.0106 195.984 17.1071 194.411 16.743C193.39 16.4085 192.463 15.9205 191.848 15.0273C191.296 14.2185 191.094 13.2296 191.287 12.2762C191.459 11.4176 192.108 10.4299 192.867 9.98497C195.243 8.59197 198.046 9.08878 200.529 9.57593C200.493 7.63867 199.133 6.15595 197.128 5.94653C196.405 5.87108 194.912 6.19366 195.198 4.90222C195.279 4.53411 195.553 4.38499 195.858 4.22172Z" fill="#002857"/>
<path d="M196.295 10.4288C197.294 10.3183 199.517 10.7159 200.548 10.8787C200.445 12.8274 199.246 14.5075 197.306 15.1069C196.392 15.3802 194.792 15.304 193.999 14.7084C193.519 14.3528 193.206 13.8231 193.132 13.2394C193.055 12.6546 193.224 12.0644 193.6 11.6026C194.261 10.7757 195.282 10.5491 196.295 10.4288Z" fill="white"/>
<path d="M139.449 6.27639C140.992 4.53838 142.364 3.76195 144.804 4.16731C147.134 4.55446 149.043 6.66474 149.081 8.98366C149.114 11.0182 149.051 13.0764 149.099 15.1146C149.11 15.6182 149.095 16.3776 148.57 16.6556C147.017 17.4441 147.217 14.8349 147.221 14.0406L147.235 10.7569C147.237 10.0242 147.268 9.21286 147.162 8.48567C146.815 6.13169 144.028 5.01869 142.006 6.23762C140.227 7.30979 140.39 9.13072 140.403 10.9011L140.425 13.7207C140.429 14.3667 140.573 15.5085 139.926 15.8855C139.733 16 139.5 16.033 139.282 15.9768C138.793 15.8484 138.606 15.343 138.558 14.9001C138.352 13.005 139.027 8.9297 138.094 7.34207C137.683 6.63203 136.997 6.11276 136.19 5.90071C134.385 5.42632 132.451 6.25044 131.952 8.08301C131.985 9.80142 131.996 11.5202 131.986 13.2389C131.985 13.7321 132.018 15.443 131.901 15.8621L131.749 16.0001C131.71 16.2074 131.516 16.4876 131.337 16.6109C131.148 16.7416 130.912 16.7931 130.684 16.7538C129.493 16.5514 129.878 13.6641 129.87 12.7778C129.871 10.0629 129.459 6.73976 132.152 4.98826C134.662 3.35503 137.739 3.86688 139.449 6.27639Z" fill="#002857"/>
<path d="M131.749 16.0001C131.667 14.0176 131.784 11.8297 131.732 9.82799C131.721 9.41462 131.672 8.35588 131.951 8.08301C131.985 9.80141 131.996 11.5202 131.985 13.2388C131.985 13.7321 132.018 15.443 131.901 15.8621L131.749 16.0001Z" fill="#B0B8C7"/>
<path d="M205.914 8.04034C206.52 6.41293 207.166 5.39795 208.828 4.60471C212.201 2.99552 216.328 5.17142 216.673 8.83958C216.803 10.2767 216.684 11.8034 216.704 13.2479C216.69 13.9444 216.758 14.9353 216.721 15.5543C216.711 15.7413 216.672 15.9258 216.607 16.1019C216.457 16.4979 216.167 16.6368 215.799 16.8226C215.409 16.6724 215.13 16.5824 214.874 16.2411C214.507 15.5282 214.681 9.77913 214.666 8.46207C213.843 5.3972 209.737 4.88023 208.183 7.4918C207.933 7.90647 207.769 8.36537 207.7 8.84218C207.634 9.29322 207.666 9.80143 207.66 10.2586C207.635 12.1879 207.722 14.1494 207.64 16.0752C206.998 16.9625 206.392 16.9606 205.75 16.0993C205.565 15.2802 205.628 8.73068 205.914 8.04034Z" fill="#002857"/>
<path d="M205.914 8.04028C205.939 9.66199 205.947 11.2839 205.938 12.9058C205.937 13.5334 206.022 15.6796 205.75 16.0993C205.565 15.2801 205.628 8.73062 205.914 8.04028Z" fill="#2D4368"/>
<path d="M214.666 8.46216C214.763 8.56146 214.876 8.69601 214.883 8.83657C214.919 9.60105 214.98 10.4821 214.93 11.2441C214.83 12.7732 215.082 14.7686 214.874 16.2411C214.507 15.5283 214.681 9.77921 214.666 8.46216Z" fill="#7B859A"/>
<path d="M116.718 4.09991C117.963 3.99398 118.489 4.51008 118.491 5.72843C118.496 9.01801 118.545 12.3166 118.468 15.6045C118.453 16.2642 118.034 16.6295 117.489 16.9144C116.397 17.0051 115.747 16.5759 115.722 15.4575C115.661 12.8155 115.706 10.1682 115.697 7.52478C115.694 6.66477 115.639 5.51909 115.84 4.70395C116.105 4.41344 116.368 4.26936 116.718 4.09991Z" fill="#00ACDA"/>
<path d="M183.874 9.69895C184.064 6.25173 186.388 4.20472 189.829 4.20563C190.683 4.16653 191.234 5.03116 190.626 5.65041C190.265 6.01858 189.137 5.93722 188.615 6.05734C184.721 6.95223 186.086 11.1195 185.851 13.9489C185.793 14.6445 186.029 16.045 185.448 16.5293C185.273 16.6748 185.047 16.7459 184.818 16.7266C184.338 16.6864 183.938 16.2761 183.865 15.8198C183.677 14.5315 183.613 10.9563 183.874 9.69895Z" fill="#002857"/>
<path d="M183.865 15.8198C183.677 14.5315 183.613 10.9563 183.874 9.69897C183.999 10.766 183.984 14.732 183.865 15.8198Z" fill="#B0B8C7"/>
<path d="M153.038 4.7011C153.252 4.37823 153.41 4.17025 153.833 4.08628C155.127 3.8292 154.874 5.86165 154.869 6.65199L154.857 9.63424L154.868 13.5879C154.87 14.2599 155.146 16.6075 154.172 16.7664C153.684 16.846 153.317 16.5061 153.058 16.1364C152.982 15.7998 152.988 12.5012 153.003 12.0174C153.071 9.6942 152.898 6.98006 153.038 4.7011Z" fill="#002857"/>
<path d="M153.038 4.70117C153.121 4.84989 153.202 5.04078 153.206 5.20797C153.232 6.55982 153.273 8.5669 153.239 9.85979C153.21 10.9416 153.344 15.2081 153.104 15.9988C153.09 16.0451 153.074 16.091 153.058 16.1364C152.982 15.7999 152.988 12.5013 153.003 12.0175C153.071 9.69427 152.898 6.98013 153.038 4.70117Z" fill="#2D4368"/>
</g>
</g>
<defs>
<clipPath id="clip0_270_542">
<rect width="229" height="21" fill="white"/>
</clipPath>
</defs>
</svg>
